<svg xmlns="http://www.w3.org/2000/svg" xmlns:xlink="http://www.w3.org/1999/xlink" width="2760px" height="1500px" viewBox="0 0 2750 1500" version="1.1">
    <g id="surface1">
        <path style=" stroke:none;fill-rule:nonzero;fill:rgb(100%,100%,100%);fill-opacity:1;" d="M 0.121094 0.710938 L 0.0117188 0.710938 L 0.0117188 1.113281 L 0.121094 1.113281 Z M 0.773438 0.898438 L 0.664062 0.898438 L 0.664062 1.300781 L 0.773438 1.300781 Z M 0.503906 0.015625 C 0.230469 0.015625 0.0117188 0.234375 0.0117188 0.503906 L 0.0117188 0.585938 L 0.121094 0.585938 L 0.121094 0.503906 C 0.121094 0.292969 0.292969 0.125 0.503906 0.125 C 0.714844 0.125 0.882812 0.292969 0.882812 0.503906 L 0.882812 0.898438 L 0.992188 0.898438 L 0.992188 0.503906 C 0.988281 0.234375 0.769531 0.015625 0.503906 0.015625 Z M 0.554688 1.300781 L 0.445312 1.300781 L 0.445312 1.425781 L 0.554688 1.425781 Z M 0.554688 0.773438 L 0.445312 0.773438 L 0.445312 1.171875 L 0.554688 1.171875 Z M 0.335938 0.605469 C 0.335938 0.515625 0.410156 0.441406 0.496094 0.441406 C 0.585938 0.441406 0.660156 0.515625 0.660156 0.605469 L 0.660156 0.769531 L 0.769531 0.769531 L 0.769531 0.605469 C 0.769531 0.457031 0.648438 0.332031 0.496094 0.332031 C 0.347656 0.332031 0.226562 0.457031 0.226562 0.605469 L 0.226562 1.300781 L 0.335938 1.300781 Z M 1.488281 1.148438 L 1.34375 1.148438 L 1.34375 1.425781 L 1.304688 1.425781 L 1.304688 1.113281 L 1.484375 1.113281 L 1.484375 1.148438 Z M 1.613281 1.429688 C 1.542969 1.429688 1.5 1.386719 1.5 1.289062 L 1.5 1.253906 C 1.5 1.152344 1.542969 1.113281 1.613281 1.113281 C 1.679688 1.113281 1.726562 1.152344 1.726562 1.253906 L 1.726562 1.289062 C 1.726562 1.386719 1.679688 1.429688 1.613281 1.429688 Z M 1.535156 1.289062 C 1.535156 1.363281 1.558594 1.398438 1.609375 1.398438 C 1.65625 1.398438 1.679688 1.371094 1.679688 1.289062 L 1.679688 1.253906 C 1.679688 1.175781 1.65625 1.144531 1.609375 1.144531 C 1.558594 1.144531 1.535156 1.171875 1.535156 1.253906 Z M 1.824219 1.308594 L 1.824219 1.425781 L 1.78125 1.425781 L 1.78125 1.113281 L 1.882812 1.113281 C 1.957031 1.113281 1.996094 1.148438 1.996094 1.210938 C 1.996094 1.273438 1.957031 1.308594 1.882812 1.308594 Z M 1.882812 1.273438 C 1.933594 1.273438 1.957031 1.246094 1.957031 1.210938 C 1.957031 1.171875 1.933594 1.148438 1.882812 1.148438 L 1.824219 1.148438 L 1.824219 1.273438 Z M 2.144531 1.429688 C 2.078125 1.429688 2.03125 1.386719 2.03125 1.289062 L 2.03125 1.253906 C 2.035156 1.148438 2.078125 1.109375 2.144531 1.109375 C 2.214844 1.109375 2.257812 1.148438 2.257812 1.25 L 2.257812 1.28125 C 2.257812 1.386719 2.21875 1.429688 2.144531 1.429688 Z M 2.074219 1.289062 C 2.074219 1.363281 2.097656 1.398438 2.144531 1.398438 C 2.195312 1.398438 2.21875 1.371094 2.21875 1.289062 L 2.21875 1.253906 C 2.21875 1.175781 2.195312 1.144531 2.144531 1.144531 C 2.097656 1.144531 2.074219 1.171875 2.074219 1.253906 Z M 2.289062 1.484375 L 2.289062 1.394531 L 2.300781 1.394531 C 2.3125 1.386719 2.324219 1.359375 2.335938 1.339844 C 2.34375 1.3125 2.351562 1.261719 2.351562 1.191406 L 2.351562 1.117188 L 2.535156 1.117188 L 2.535156 1.390625 L 2.574219 1.390625 L 2.574219 1.484375 L 2.535156 1.484375 L 2.535156 1.421875 L 2.324219 1.421875 L 2.324219 1.484375 Z M 2.351562 1.386719 L 2.5 1.386719 L 2.5 1.144531 L 2.390625 1.144531 L 2.390625 1.183594 C 2.390625 1.261719 2.382812 1.316406 2.367188 1.351562 C 2.367188 1.371094 2.359375 1.382812 2.351562 1.386719 Z M 1.5 0.585938 L 1.394531 0.847656 C 1.378906 0.890625 1.359375 0.902344 1.304688 0.902344 L 1.304688 0.867188 C 1.339844 0.867188 1.351562 0.863281 1.363281 0.832031 L 1.257812 0.585938 L 1.296875 0.585938 L 1.382812 0.78125 L 1.460938 0.585938 Z M 1.675781 0.78125 L 1.769531 0.585938 L 1.808594 0.585938 L 1.808594 0.898438 L 1.765625 0.898438 L 1.765625 0.667969 L 1.6875 0.832031 L 1.652344 0.832031 L 1.578125 0.671875 L 1.578125 0.898438 L 1.539062 0.898438 L 1.539062 0.585938 L 1.574219 0.585938 Z M 1.917969 0.71875 L 2.054688 0.71875 L 2.054688 0.585938 L 2.09375 0.585938 L 2.09375 0.898438 L 2.054688 0.898438 L 2.054688 0.757812 L 1.917969 0.757812 L 1.917969 0.898438 L 1.878906 0.898438 L 1.878906 0.585938 L 1.917969 0.585938 Z M 2.207031 0.707031 L 2.257812 0.707031 C 2.339844 0.707031 2.363281 0.757812 2.363281 0.800781 C 2.363281 0.847656 2.335938 0.894531 2.257812 0.894531 L 2.164062 0.894531 L 2.164062 0.582031 L 2.207031 0.582031 Z M 2.207031 0.746094 L 2.207031 0.863281 L 2.257812 0.863281 C 2.308594 0.863281 2.328125 0.835938 2.328125 0.804688 C 2.328125 0.769531 2.308594 0.742188 2.257812 0.742188 L 2.207031 0.742188 Z M 2.441406 0.898438 L 2.402344 0.898438 L 2.402344 0.585938 L 2.441406 0.585938 Z M 2.558594 0.585938 L 2.558594 0.820312 L 2.703125 0.585938 L 2.738281 0.585938 L 2.738281 0.898438 L 2.699219 0.898438 L 2.699219 0.667969 L 2.550781 0.898438 L 2.519531 0.898438 L 2.519531 0.585938 Z M 2.714844 0.5 C 2.714844 0.546875 2.6875 0.566406 2.636719 0.566406 C 2.589844 0.566406 2.558594 0.542969 2.558594 0.5 L 2.597656 0.5 C 2.597656 0.515625 2.605469 0.539062 2.636719 0.539062 C 2.671875 0.539062 2.675781 0.523438 2.675781 0.5 Z M 1.5 0.585938 L 1.394531 0.847656 C 1.378906 0.890625 1.359375 0.902344 1.304688 0.902344 L 1.304688 0.867188 C 1.339844 0.867188 1.351562 0.863281 1.363281 0.832031 L 1.257812 0.585938 L 1.296875 0.585938 L 1.382812 0.78125 L 1.460938 0.585938 Z M 1.675781 0.78125 L 1.769531 0.585938 L 1.808594 0.585938 L 1.808594 0.898438 L 1.765625 0.898438 L 1.765625 0.667969 L 1.6875 0.832031 L 1.652344 0.832031 L 1.578125 0.671875 L 1.578125 0.898438 L 1.539062 0.898438 L 1.539062 0.585938 L 1.574219 0.585938 Z M 1.917969 0.71875 L 2.054688 0.71875 L 2.054688 0.585938 L 2.09375 0.585938 L 2.09375 0.898438 L 2.054688 0.898438 L 2.054688 0.757812 L 1.917969 0.757812 L 1.917969 0.898438 L 1.878906 0.898438 L 1.878906 0.585938 L 1.917969 0.585938 Z M 2.207031 0.707031 L 2.257812 0.707031 C 2.339844 0.707031 2.363281 0.757812 2.363281 0.800781 C 2.363281 0.847656 2.335938 0.894531 2.257812 0.894531 L 2.164062 0.894531 L 2.164062 0.582031 L 2.207031 0.582031 Z M 2.207031 0.746094 L 2.207031 0.863281 L 2.257812 0.863281 C 2.308594 0.863281 2.328125 0.835938 2.328125 0.804688 C 2.328125 0.769531 2.308594 0.742188 2.257812 0.742188 L 2.207031 0.742188 Z M 2.441406 0.898438 L 2.402344 0.898438 L 2.402344 0.585938 L 2.441406 0.585938 Z M 2.558594 0.585938 L 2.558594 0.820312 L 2.703125 0.585938 L 2.738281 0.585938 L 2.738281 0.898438 L 2.699219 0.898438 L 2.699219 0.667969 L 2.550781 0.898438 L 2.519531 0.898438 L 2.519531 0.585938 Z M 2.714844 0.5 C 2.714844 0.546875 2.6875 0.566406 2.636719 0.566406 C 2.589844 0.566406 2.558594 0.542969 2.558594 0.5 L 2.597656 0.5 C 2.597656 0.515625 2.605469 0.539062 2.636719 0.539062 C 2.671875 0.539062 2.675781 0.523438 2.675781 0.5 Z M 1.488281 1.148438 L 1.34375 1.148438 L 1.34375 1.425781 L 1.304688 1.425781 L 1.304688 1.113281 L 1.484375 1.113281 L 1.484375 1.148438 Z M 1.613281 1.429688 C 1.542969 1.429688 1.5 1.386719 1.5 1.289062 L 1.5 1.253906 C 1.5 1.152344 1.542969 1.113281 1.613281 1.113281 C 1.679688 1.113281 1.726562 1.152344 1.726562 1.253906 L 1.726562 1.289062 C 1.726562 1.386719 1.679688 1.429688 1.613281 1.429688 Z M 1.535156 1.289062 C 1.535156 1.363281 1.558594 1.398438 1.609375 1.398438 C 1.65625 1.398438 1.679688 1.371094 1.679688 1.289062 L 1.679688 1.253906 C 1.679688 1.175781 1.65625 1.144531 1.609375 1.144531 C 1.558594 1.144531 1.535156 1.171875 1.535156 1.253906 Z M 1.824219 1.308594 L 1.824219 1.425781 L 1.78125 1.425781 L 1.78125 1.113281 L 1.882812 1.113281 C 1.957031 1.113281 1.996094 1.148438 1.996094 1.210938 C 1.996094 1.273438 1.957031 1.308594 1.882812 1.308594 Z M 1.882812 1.273438 C 1.933594 1.273438 1.957031 1.246094 1.957031 1.210938 C 1.957031 1.171875 1.933594 1.148438 1.882812 1.148438 L 1.824219 1.148438 L 1.824219 1.273438 Z M 2.144531 1.429688 C 2.078125 1.429688 2.03125 1.386719 2.03125 1.289062 L 2.03125 1.253906 C 2.035156 1.148438 2.078125 1.109375 2.144531 1.109375 C 2.214844 1.109375 2.257812 1.148438 2.257812 1.25 L 2.257812 1.28125 C 2.257812 1.386719 2.21875 1.429688 2.144531 1.429688 Z M 2.074219 1.289062 C 2.074219 1.363281 2.097656 1.398438 2.144531 1.398438 C 2.195312 1.398438 2.21875 1.371094 2.21875 1.289062 L 2.21875 1.253906 C 2.21875 1.175781 2.195312 1.144531 2.144531 1.144531 C 2.097656 1.144531 2.074219 1.171875 2.074219 1.253906 Z M 2.289062 1.484375 L 2.289062 1.394531 L 2.300781 1.394531 C 2.3125 1.386719 2.324219 1.359375 2.335938 1.339844 C 2.34375 1.3125 2.351562 1.261719 2.351562 1.191406 L 2.351562 1.117188 L 2.535156 1.117188 L 2.535156 1.390625 L 2.574219 1.390625 L 2.574219 1.484375 L 2.535156 1.484375 L 2.535156 1.421875 L 2.324219 1.421875 L 2.324219 1.484375 Z M 2.351562 1.386719 L 2.5 1.386719 L 2.5 1.144531 L 2.390625 1.144531 L 2.390625 1.183594 C 2.390625 1.261719 2.382812 1.316406 2.367188 1.351562 C 2.367188 1.371094 2.359375 1.382812 2.351562 1.386719 Z M 2.351562 1.386719 "/>
    </g>
</svg>
