<?xml version="1.0" encoding="UTF-8"?> <svg xmlns="http://www.w3.org/2000/svg" width="2302" height="2419" viewBox="0 0 2302 2419" fill="none"> <path fill-rule="evenodd" clip-rule="evenodd" d="M1614.62 970.727C1664.63 920.72 1664.63 839.651 1614.62 789.648L1599.49 774.517L1579.37 794.638L1594.5 809.775C1633.39 848.666 1633.39 911.715 1594.5 950.606C1555.61 989.498 1492.56 989.498 1453.67 950.606L1380.69 877.637L1360.58 897.758L1433.54 970.727C1483.55 1020.73 1564.62 1020.73 1614.62 970.727Z" fill="#016A82"></path> <path fill-rule="evenodd" clip-rule="evenodd" d="M1193.7 871.766C1243.71 821.763 1324.78 821.763 1374.78 871.766L1389.91 886.897L1369.79 907.023L1354.65 891.887C1315.76 852.996 1252.71 852.996 1213.82 891.887C1174.93 930.778 1174.93 993.832 1213.82 1032.72L1286.79 1105.7L1266.67 1125.81L1193.7 1052.84C1143.7 1002.84 1143.7 921.768 1193.7 871.766Z" fill="#016A82"></path> <path fill-rule="evenodd" clip-rule="evenodd" d="M1292.69 1292.66C1342.69 1242.65 1342.69 1161.58 1292.69 1111.57L1277.56 1096.45L1257.43 1116.57L1272.57 1131.71C1311.46 1170.6 1311.46 1233.65 1272.57 1272.54C1233.68 1311.43 1170.63 1311.43 1131.73 1272.54L1058.76 1199.57L1038.64 1219.69L1111.61 1292.66C1161.62 1342.66 1242.69 1342.66 1292.69 1292.66Z" fill="#016A82"></path> <path fill-rule="evenodd" clip-rule="evenodd" d="M970.724 1614.63C1020.73 1564.62 1020.73 1483.55 970.724 1433.54L955.593 1418.42L935.466 1438.54L950.602 1453.68C989.494 1492.57 989.494 1555.62 950.602 1594.51C911.711 1633.4 848.657 1633.4 809.766 1594.51L736.791 1521.54L716.675 1541.66L789.645 1614.63C839.647 1664.63 920.721 1664.63 970.724 1614.63Z" fill="#016A82"></path> <path fill-rule="evenodd" clip-rule="evenodd" d="M871.769 1193.7C921.771 1143.69 1002.85 1143.69 1052.85 1193.7L1067.98 1208.83L1047.86 1228.95L1032.72 1213.82C993.83 1174.93 930.776 1174.93 891.89 1213.82H891.884C852.998 1252.71 852.998 1315.76 891.884 1354.66L964.859 1427.63L944.738 1447.75L871.769 1374.78C821.761 1324.77 821.761 1243.7 871.769 1193.7Z" fill="#016A82"></path> <path fill-rule="evenodd" clip-rule="evenodd" d="M1361.59 717.697C1411.6 667.689 1411.6 586.62 1361.59 536.618L1346.46 521.487L1326.34 541.608L1341.47 556.744C1380.36 595.636 1380.36 658.684 1341.47 697.576C1302.58 736.467 1239.53 736.467 1200.64 697.576L1127.66 624.606L1107.54 644.727L1180.51 717.697C1230.52 767.699 1311.59 767.699 1361.59 717.697Z" fill="#016A82"></path> <path fill-rule="evenodd" clip-rule="evenodd" d="M940.668 618.735C990.676 568.732 1071.74 568.732 1121.75 618.735L1136.88 633.866L1116.76 653.992L1101.62 638.856C1062.73 599.965 999.68 599.965 960.789 638.856C921.898 677.747 921.898 740.801 960.789 779.693L1033.76 852.668L1013.64 872.784L940.668 799.814C890.665 749.811 890.665 668.737 940.668 618.735Z" fill="#016A82"></path> <path fill-rule="evenodd" clip-rule="evenodd" d="M1039.66 1039.63C1089.66 989.621 1089.66 908.552 1039.66 858.544L1024.53 843.419L1004.4 863.54L1019.54 878.676C1058.43 917.568 1058.43 980.616 1019.54 1019.51C980.649 1058.4 917.595 1058.4 878.703 1019.51L805.728 946.538L785.612 966.659L858.582 1039.63C908.585 1089.63 989.659 1089.63 1039.66 1039.63Z" fill="#016A82"></path> <path fill-rule="evenodd" clip-rule="evenodd" d="M717.693 1361.6C767.695 1311.59 767.695 1230.52 717.693 1180.51L702.562 1165.39L682.435 1185.51L697.572 1200.64C736.463 1239.54 736.463 1302.58 697.572 1341.48C658.68 1380.37 595.626 1380.37 556.735 1341.48L483.76 1268.51L463.644 1288.63L536.614 1361.6C586.616 1411.6 667.69 1411.6 717.693 1361.6Z" fill="#016A82"></path> <path fill-rule="evenodd" clip-rule="evenodd" d="M618.739 940.667C668.741 890.659 749.815 890.659 799.818 940.667L814.949 955.798L794.828 975.924L779.691 960.788C740.8 921.897 677.746 921.897 638.855 960.788C599.968 999.679 599.968 1062.73 638.855 1101.62L711.83 1174.6L691.709 1194.72L618.739 1121.75C568.731 1071.74 568.731 990.669 618.739 940.667Z" fill="#016A82"></path> <path fill-rule="evenodd" clip-rule="evenodd" d="M1440.49 1138.68L1460.62 1118.56L1437 1094.94L1416.87 1115.06L1440.49 1138.68Z" fill="#016A82"></path> <path fill-rule="evenodd" clip-rule="evenodd" d="M1393.25 1091.44L1413.37 1071.31L1339.63 997.575L1319.51 1017.7L1393.25 1091.44Z" fill="#016A82"></path> <path fill-rule="evenodd" clip-rule="evenodd" d="M1457.17 1074.91L1477.29 1054.78L1403.17 980.657L1383.04 1000.78L1457.17 1074.91Z" fill="#016A82"></path> <path fill-rule="evenodd" clip-rule="evenodd" d="M1268.37 1006.76C1251.7 990.096 1251.69 963.088 1268.36 946.424C1285.02 929.76 1312.04 929.76 1328.7 946.424L1359.87 977.592L1379.98 957.476L1348.82 926.308C1321.05 898.539 1276.02 898.539 1248.24 926.308C1220.47 954.083 1220.47 999.112 1248.24 1026.88L1260.27 1038.91L1376.71 1155.36L1396.84 1135.23L1280.39 1018.78L1268.37 1006.76Z" fill="#016A82"></path> <path fill-rule="evenodd" clip-rule="evenodd" d="M792.784 772.626L772.658 792.747L796.284 816.373L816.405 796.247L792.784 772.626Z" fill="#016A82"></path> <path fill-rule="evenodd" clip-rule="evenodd" d="M840.029 819.87L819.908 839.997L893.644 913.733L913.77 893.612L840.029 819.87Z" fill="#016A82"></path> <path fill-rule="evenodd" clip-rule="evenodd" d="M776.11 836.403L755.983 856.524L830.111 930.651L850.232 910.525L776.11 836.403Z" fill="#016A82"></path> <path fill-rule="evenodd" clip-rule="evenodd" d="M964.907 904.548C981.571 921.212 981.582 948.221 964.918 964.884C948.254 981.548 921.24 981.548 904.571 964.884L873.408 933.717L853.292 953.832L884.455 985C912.23 1012.78 957.259 1012.77 985.034 985C1012.81 957.225 1012.81 912.197 985.034 884.427L973.006 872.399L856.562 755.95L836.436 776.076L952.885 892.526L964.907 904.548Z" fill="#016A82"></path> <path fill-rule="evenodd" clip-rule="evenodd" d="M468.488 1096.92L448.367 1117.04L471.988 1140.67L492.115 1120.54L468.488 1096.92Z" fill="#016A82"></path> <path fill-rule="evenodd" clip-rule="evenodd" d="M515.736 1144.17L495.609 1164.29L569.351 1238.03L589.472 1217.91L515.736 1144.17Z" fill="#016A82"></path> <path fill-rule="evenodd" clip-rule="evenodd" d="M451.815 1160.7L431.694 1180.82L505.816 1254.94L525.942 1234.82L451.815 1160.7Z" fill="#016A82"></path> <path fill-rule="evenodd" clip-rule="evenodd" d="M640.615 1228.84C657.279 1245.51 657.29 1272.52 640.62 1289.18C623.962 1305.84 596.943 1305.84 580.279 1289.18L549.116 1258.01L529 1278.13L560.163 1309.3C587.938 1337.07 632.967 1337.07 660.736 1309.3C688.511 1281.52 688.511 1236.49 660.736 1208.72L648.714 1196.69L532.265 1080.25L512.144 1100.37L628.587 1216.82L640.615 1228.84Z" fill="#016A82"></path> <path fill-rule="evenodd" clip-rule="evenodd" d="M1071.32 1413.37L1091.44 1393.25L1017.7 1319.5L997.574 1339.63L1071.32 1413.37Z" fill="#016A82"></path> <path fill-rule="evenodd" clip-rule="evenodd" d="M1135.24 1396.84L1155.36 1376.71L1081.24 1302.59L1061.11 1322.71L1135.24 1396.84Z" fill="#016A82"></path> <path fill-rule="evenodd" clip-rule="evenodd" d="M946.436 1328.69C929.772 1312.03 929.761 1285.02 946.425 1268.36C963.089 1251.69 990.108 1251.69 1006.77 1268.36L1037.93 1299.52L1058.05 1279.41L1026.89 1248.24C999.113 1220.47 954.084 1220.47 926.309 1248.24C898.534 1276.01 898.534 1321.04 926.309 1348.81L938.337 1360.84L1054.78 1477.29L1074.91 1457.16L958.463 1340.71L946.436 1328.69Z" fill="#016A82"></path> <path fill-rule="evenodd" clip-rule="evenodd" d="M970.724 1614.63C1020.73 1564.62 1020.73 1483.55 970.724 1433.54L955.593 1418.42L935.466 1438.54L950.602 1453.68C989.494 1492.57 989.494 1555.62 950.602 1594.51C911.711 1633.4 848.657 1633.4 809.766 1594.51L736.791 1521.54L716.675 1541.66L789.645 1614.63C839.647 1664.63 920.721 1664.63 970.724 1614.63Z" fill="#016A82"></path> <path fill-rule="evenodd" clip-rule="evenodd" d="M549.8 1515.67C599.803 1465.66 680.877 1465.66 730.879 1515.67L746.01 1530.8L725.889 1550.92L710.753 1535.79C671.861 1496.9 608.808 1496.9 569.916 1535.79C531.03 1574.68 531.03 1637.73 569.916 1676.62L642.891 1749.6L622.77 1769.71L549.8 1696.75C499.792 1646.74 499.792 1565.67 549.8 1515.67Z" fill="#016A82"></path> <path fill-rule="evenodd" clip-rule="evenodd" d="M648.791 1936.56C698.794 1886.55 698.794 1805.48 648.791 1755.48L633.66 1740.35L613.534 1760.47L628.67 1775.6C667.561 1814.5 667.561 1877.55 628.67 1916.44C589.778 1955.33 526.724 1955.33 487.833 1916.44L414.858 1843.47L394.742 1863.59L467.712 1936.56C517.714 1986.56 598.788 1986.56 648.791 1936.56Z" fill="#016A82"></path> <path fill-rule="evenodd" clip-rule="evenodd" d="M326.823 2258.53C376.825 2208.52 376.825 2127.45 326.823 2077.45L311.692 2062.32L291.565 2082.44L306.702 2097.58C345.593 2136.46 345.593 2199.52 306.702 2238.41C267.81 2277.3 204.756 2277.3 165.865 2238.41L92.8896 2165.44L72.7739 2185.56L145.744 2258.53C195.746 2308.53 276.82 2308.53 326.823 2258.53Z" fill="#016A82"></path> <path fill-rule="evenodd" clip-rule="evenodd" d="M227.869 1837.6C277.871 1787.59 358.945 1787.59 408.948 1837.6L424.079 1852.73L403.958 1872.85L388.821 1857.71C349.93 1818.83 286.876 1818.83 247.99 1857.71C209.098 1896.61 209.098 1959.66 247.99 1998.56L320.959 2071.53L300.838 2091.65L227.869 2018.68C177.866 1968.67 177.866 1887.6 227.869 1837.6Z" fill="#016A82"></path> <path fill-rule="evenodd" clip-rule="evenodd" d="M717.693 1361.6C767.695 1311.59 767.695 1230.52 717.693 1180.51L702.562 1165.39L682.435 1185.51L697.572 1200.64C736.463 1239.54 736.463 1302.58 697.572 1341.48C658.68 1380.37 595.626 1380.37 556.735 1341.48L483.76 1268.51L463.644 1288.63L536.614 1361.6C586.616 1411.6 667.69 1411.6 717.693 1361.6Z" fill="#016A82"></path> <path fill-rule="evenodd" clip-rule="evenodd" d="M296.77 1262.64C346.772 1212.63 427.846 1212.63 477.849 1262.64L492.98 1277.77L472.859 1297.89L457.722 1282.76C418.831 1243.87 355.777 1243.87 316.885 1282.76C277.999 1321.65 277.999 1384.7 316.885 1423.59L389.86 1496.57L369.739 1516.68L296.77 1443.71C246.762 1393.71 246.762 1312.64 296.77 1262.64Z" fill="#016A82"></path> <path fill-rule="evenodd" clip-rule="evenodd" d="M395.761 1683.53C445.764 1633.52 445.764 1552.45 395.761 1502.45L380.63 1487.32L360.504 1507.44L375.64 1522.57C414.532 1561.47 414.532 1624.52 375.64 1663.41C336.749 1702.3 273.695 1702.3 234.803 1663.41L161.828 1590.44L141.712 1610.56L214.682 1683.53C264.685 1733.53 345.759 1733.53 395.761 1683.53Z" fill="#016A82"></path> <path fill-rule="evenodd" clip-rule="evenodd" d="M796.594 1782.58L816.715 1762.46L793.094 1738.84L772.968 1758.96L796.594 1782.58Z" fill="#016A82"></path> <path fill-rule="evenodd" clip-rule="evenodd" d="M749.347 1735.34L769.468 1715.21L695.732 1641.47L675.605 1661.6L749.347 1735.34Z" fill="#016A82"></path> <path fill-rule="evenodd" clip-rule="evenodd" d="M813.265 1718.81L833.392 1698.68L759.27 1624.56L739.143 1644.68L813.265 1718.81Z" fill="#016A82"></path> <path fill-rule="evenodd" clip-rule="evenodd" d="M624.467 1650.66C607.804 1634 607.793 1606.99 624.457 1590.32C641.121 1573.66 668.14 1573.66 684.804 1590.32L715.966 1621.49L736.082 1601.38L704.92 1570.21C677.145 1542.43 632.116 1542.43 604.341 1570.21C576.566 1597.98 576.566 1643.01 604.341 1670.78L616.369 1682.81L732.813 1799.26L752.939 1779.13L636.495 1662.68L624.467 1650.66Z" fill="#016A82"></path> <path fill-rule="evenodd" clip-rule="evenodd" d="M1118 1461.18L1138.13 1441.05L1114.5 1417.43L1094.38 1437.55L1118 1461.18Z" fill="#016A82"></path> <path fill-rule="evenodd" clip-rule="evenodd" d="M196.131 1463.77L176.004 1483.9L249.746 1557.63L269.867 1537.51L196.131 1463.77Z" fill="#016A82"></path> <path fill-rule="evenodd" clip-rule="evenodd" d="M132.209 1480.3L112.083 1500.42L186.21 1574.55L206.332 1554.43L132.209 1480.3Z" fill="#016A82"></path> <path fill-rule="evenodd" clip-rule="evenodd" d="M321.01 1548.45C337.674 1565.11 337.679 1592.12 321.015 1608.78C304.357 1625.45 277.338 1625.45 260.674 1608.78L229.506 1577.62L209.39 1597.73L240.558 1628.9C268.333 1656.67 313.362 1656.67 341.131 1628.9C368.906 1601.13 368.906 1556.1 341.131 1528.33L329.109 1516.3L212.66 1399.85L192.539 1419.98L308.983 1536.43L321.01 1548.45Z" fill="#016A82"></path> <path fill-rule="evenodd" clip-rule="evenodd" d="M474.662 2104.52L494.783 2084.39L471.162 2060.77L451.036 2080.89L474.662 2104.52Z" fill="#016A82"></path> <path fill-rule="evenodd" clip-rule="evenodd" d="M427.415 2057.27L447.542 2037.15L373.8 1963.4L353.679 1983.53L427.415 2057.27Z" fill="#016A82"></path> <path fill-rule="evenodd" clip-rule="evenodd" d="M491.336 2040.74L511.458 2020.61L437.335 1946.49L417.209 1966.62L491.336 2040.74Z" fill="#016A82"></path> <path fill-rule="evenodd" clip-rule="evenodd" d="M302.535 1972.59C285.871 1955.93 285.861 1928.92 302.525 1912.25C319.189 1895.59 346.208 1895.59 362.872 1912.25L394.034 1943.42L414.15 1923.31L382.988 1892.14C355.213 1864.37 310.184 1864.37 282.414 1892.14C254.639 1919.91 254.634 1964.94 282.414 1992.72L294.437 2004.74L410.886 2121.19L431.007 2101.06L314.563 1984.62L302.535 1972.59Z" fill="#016A82"></path> <path fill-rule="evenodd" clip-rule="evenodd" d="M2258.52 326.827C2308.53 276.824 2308.53 195.75 2258.52 145.748L2243.39 130.617L2223.27 150.738L2238.4 165.874C2277.29 204.766 2277.29 267.82 2238.4 306.706C2199.51 345.597 2136.46 345.597 2097.56 306.706L2024.59 233.736L2004.48 253.857L2077.45 326.827C2127.45 376.829 2208.52 376.829 2258.52 326.827Z" fill="#016A82"></path> <path fill-rule="evenodd" clip-rule="evenodd" d="M1837.6 227.865C1887.61 177.862 1968.68 177.862 2018.68 227.865L2033.81 242.996L2013.69 263.122L1998.55 247.986C1959.66 209.095 1896.61 209.095 1857.72 247.986C1818.83 286.878 1818.83 349.932 1857.72 388.823L1930.69 461.798L1910.57 481.914L1837.6 408.944C1787.6 358.942 1787.6 277.868 1837.6 227.865Z" fill="#016A82"></path> <path fill-rule="evenodd" clip-rule="evenodd" d="M1936.59 648.759C1986.59 598.751 1986.59 517.682 1936.59 467.68L1921.46 452.549L1901.33 472.67L1916.47 487.806C1955.36 526.698 1955.36 589.746 1916.47 628.638C1877.58 667.529 1814.53 667.529 1775.63 628.638L1702.66 555.668L1682.54 575.789L1755.51 648.759C1805.52 698.762 1886.59 698.762 1936.59 648.759Z" fill="#016A82"></path> <path fill-rule="evenodd" clip-rule="evenodd" d="M1614.62 970.727C1664.63 920.72 1664.63 839.651 1614.62 789.648L1599.49 774.517L1579.37 794.638L1594.5 809.775C1633.39 848.666 1633.39 911.715 1594.5 950.606C1555.61 989.498 1492.56 989.498 1453.67 950.606L1380.69 877.637L1360.58 897.758L1433.54 970.727C1483.55 1020.73 1564.62 1020.73 1614.62 970.727Z" fill="#016A82"></path> <path fill-rule="evenodd" clip-rule="evenodd" d="M1515.67 549.797C1565.67 499.794 1646.75 499.794 1696.75 549.797L1711.88 564.928L1691.76 585.054L1676.62 569.918C1637.73 531.027 1574.68 531.027 1535.79 569.918C1496.9 608.809 1496.9 671.863 1535.79 710.755L1608.76 783.73L1588.64 803.846L1515.67 730.876C1465.66 680.873 1465.66 599.799 1515.67 549.797Z" fill="#016A82"></path> <path fill-rule="evenodd" clip-rule="evenodd" d="M1683.56 395.729C1733.56 345.721 1733.56 264.652 1683.56 214.65L1668.43 199.519L1648.3 219.64L1663.44 234.776C1702.33 273.668 1702.33 336.716 1663.44 375.608C1624.55 414.499 1561.49 414.499 1522.6 375.608L1449.63 302.638L1429.51 322.759L1502.48 395.729C1552.48 445.731 1633.55 445.731 1683.56 395.729Z" fill="#016A82"></path> <path fill-rule="evenodd" clip-rule="evenodd" d="M1361.59 717.697C1411.6 667.689 1411.6 586.62 1361.59 536.618L1346.46 521.487L1326.34 541.608L1341.47 556.744C1380.36 595.636 1380.36 658.684 1341.47 697.576C1302.58 736.467 1239.53 736.467 1200.64 697.576L1127.66 624.606L1107.54 644.727L1180.51 717.697C1230.52 767.699 1311.59 767.699 1361.59 717.697Z" fill="#016A82"></path> <path fill-rule="evenodd" clip-rule="evenodd" d="M1262.64 296.767C1312.64 246.764 1393.71 246.764 1443.72 296.767L1458.85 311.898L1438.73 332.024L1423.59 316.888C1384.7 277.996 1321.65 277.996 1282.76 316.888C1243.87 355.779 1243.87 418.833 1282.76 457.725L1355.73 530.7L1335.61 550.815L1262.64 477.846C1212.63 427.843 1212.63 346.769 1262.64 296.767Z" fill="#016A82"></path> <path fill-rule="evenodd" clip-rule="evenodd" d="M2084.39 494.782L2104.52 474.661L2080.89 451.035L2060.77 471.161L2084.39 494.782Z" fill="#016A82"></path> <path fill-rule="evenodd" clip-rule="evenodd" d="M2037.15 447.537L2057.27 427.411L1983.53 353.675L1963.41 373.796L2037.15 447.537Z" fill="#016A82"></path> <path fill-rule="evenodd" clip-rule="evenodd" d="M2101.07 431.005L2121.19 410.884L2047.07 336.761L2026.94 356.883L2101.07 431.005Z" fill="#016A82"></path> <path fill-rule="evenodd" clip-rule="evenodd" d="M1912.27 362.86C1895.6 346.196 1895.59 319.188 1912.26 302.524C1928.92 285.86 1955.94 285.86 1972.6 302.524L2003.77 333.692L2023.88 313.576L1992.72 282.408C1964.95 254.638 1919.92 254.638 1892.14 282.408C1864.37 310.183 1864.37 355.212 1892.14 382.981L1904.17 395.009L2020.61 511.458L2040.74 491.332L1924.29 374.888L1912.27 362.86Z" fill="#016A82"></path> <path fill-rule="evenodd" clip-rule="evenodd" d="M1483.93 175.972L1463.81 196.093L1537.54 269.835L1557.67 249.709L1483.93 175.972Z" fill="#016A82"></path> <path fill-rule="evenodd" clip-rule="evenodd" d="M1420.01 192.502L1399.88 212.629L1474.01 286.751L1494.13 266.625L1420.01 192.502Z" fill="#016A82"></path> <path fill-rule="evenodd" clip-rule="evenodd" d="M1608.81 260.65C1625.47 277.314 1625.48 304.317 1608.82 320.986C1592.16 337.65 1565.14 337.65 1548.47 320.986L1517.31 289.819L1497.19 309.934L1528.36 341.102C1556.13 368.872 1601.16 368.872 1628.93 341.102C1656.71 313.327 1656.71 268.299 1628.93 240.524L1616.91 228.496L1500.46 112.052L1480.34 132.178L1596.79 248.622L1608.81 260.65Z" fill="#016A82"></path> <path fill-rule="evenodd" clip-rule="evenodd" d="M1112.39 453.021L1092.27 473.142L1115.89 496.768L1136.01 476.642L1112.39 453.021Z" fill="#016A82"></path> <path fill-rule="evenodd" clip-rule="evenodd" d="M1159.64 500.265L1139.51 520.391L1213.25 594.127L1233.37 574.006L1159.64 500.265Z" fill="#016A82"></path> <path fill-rule="evenodd" clip-rule="evenodd" d="M1095.72 516.798L1075.59 536.919L1149.72 611.041L1169.84 590.92L1095.72 516.798Z" fill="#016A82"></path> <path fill-rule="evenodd" clip-rule="evenodd" d="M1284.52 584.943C1301.18 601.607 1301.19 628.615 1284.52 645.279C1267.86 661.943 1240.84 661.943 1224.18 645.279L1193.01 614.111L1172.9 634.227L1204.06 665.395C1231.84 693.164 1276.87 693.164 1304.64 665.395C1332.41 637.62 1332.41 592.591 1304.64 564.822L1292.61 552.794L1176.17 436.345L1156.04 456.471L1272.49 572.915L1284.52 584.943Z" fill="#016A82"></path> <path fill-rule="evenodd" clip-rule="evenodd" d="M1762.46 816.714L1782.59 796.593L1758.97 772.967L1738.84 793.093L1762.46 816.714Z" fill="#016A82"></path> <path fill-rule="evenodd" clip-rule="evenodd" d="M1715.22 769.469L1735.34 749.343L1661.6 675.607L1641.47 695.728L1715.22 769.469Z" fill="#016A82"></path> <path fill-rule="evenodd" clip-rule="evenodd" d="M1779.13 752.937L1799.26 732.816L1725.14 658.688L1705.01 678.815L1779.13 752.937Z" fill="#016A82"></path> <path fill-rule="evenodd" clip-rule="evenodd" d="M1590.34 684.792C1573.67 668.128 1573.66 641.12 1590.33 624.456C1606.99 607.792 1634.01 607.792 1650.67 624.456L1681.84 655.624L1701.95 635.508L1670.79 604.34C1643.01 576.57 1597.99 576.57 1570.21 604.34C1542.44 632.115 1542.44 677.144 1570.21 704.913L1582.24 716.941L1698.68 833.39L1718.81 813.264L1602.36 696.814L1590.34 684.792Z" fill="#016A82"></path> <path fill-rule="evenodd" clip-rule="evenodd" d="M2195.56 1550.52C2245.56 1500.52 2245.56 1419.45 2195.56 1369.44L2180.42 1354.31L2160.3 1374.43L2175.44 1389.57C2214.33 1428.46 2214.33 1491.51 2175.44 1530.4C2136.54 1569.29 2073.49 1569.29 2034.6 1530.4L1961.62 1457.43L1941.51 1477.55L2014.48 1550.52C2064.48 1600.53 2145.55 1600.53 2195.56 1550.52Z" fill="#016A82"></path> <path fill-rule="evenodd" clip-rule="evenodd" d="M1774.63 1451.56C1824.64 1401.56 1905.71 1401.56 1955.71 1451.56L1970.84 1466.69L1950.72 1486.82L1935.59 1471.68C1896.69 1432.79 1833.64 1432.79 1794.75 1471.68C1755.86 1510.57 1755.86 1573.63 1794.75 1612.52L1867.72 1685.49L1847.6 1705.61L1774.63 1632.64C1724.63 1582.64 1724.63 1501.56 1774.63 1451.56Z" fill="#016A82"></path> <path fill-rule="evenodd" clip-rule="evenodd" d="M1873.63 1872.46C1923.63 1822.45 1923.63 1741.38 1873.63 1691.37L1858.5 1676.25L1838.37 1696.37L1853.51 1711.5C1892.39 1750.39 1892.39 1813.44 1853.51 1852.33C1814.61 1891.23 1751.56 1891.23 1712.66 1852.33L1639.69 1779.37L1619.58 1799.49L1692.55 1872.46C1742.55 1922.46 1823.62 1922.46 1873.63 1872.46Z" fill="#016A82"></path> <path fill-rule="evenodd" clip-rule="evenodd" d="M1551.66 2194.42C1601.66 2144.42 1601.66 2063.35 1551.66 2013.34L1536.53 1998.21L1516.4 2018.34L1531.54 2033.47C1570.42 2072.36 1570.42 2135.41 1531.54 2174.3C1492.65 2213.2 1429.59 2213.2 1390.69 2174.3L1317.72 2101.33L1297.61 2121.45L1370.58 2194.42C1420.58 2244.42 1501.65 2244.42 1551.66 2194.42Z" fill="#016A82"></path> <path fill-rule="evenodd" clip-rule="evenodd" d="M1452.7 1773.49C1502.71 1723.49 1583.78 1723.49 1633.78 1773.49L1648.91 1788.62L1628.79 1808.75L1613.65 1793.62C1574.76 1754.72 1511.71 1754.72 1472.82 1793.62C1433.93 1832.51 1433.93 1895.56 1472.82 1934.45L1545.79 2007.43L1525.67 2027.54L1452.7 1954.57C1402.7 1904.57 1402.7 1823.5 1452.7 1773.49Z" fill="#016A82"></path> <path fill-rule="evenodd" clip-rule="evenodd" d="M1942.52 1297.49C1992.53 1247.49 1992.53 1166.42 1942.52 1116.41L1927.39 1101.28L1907.27 1121.4L1922.41 1136.54C1961.3 1175.43 1961.3 1238.48 1922.41 1277.37C1883.51 1316.26 1820.46 1316.26 1781.57 1277.37L1708.59 1204.4L1688.48 1224.52L1761.45 1297.49C1811.45 1347.5 1892.52 1347.5 1942.52 1297.49Z" fill="#016A82"></path> <path fill-rule="evenodd" clip-rule="evenodd" d="M1521.6 1198.53C1571.61 1148.53 1652.68 1148.53 1702.68 1198.53L1717.81 1213.66L1697.69 1233.79L1682.56 1218.65C1643.66 1179.76 1580.61 1179.76 1541.72 1218.65C1502.83 1257.54 1502.83 1320.6 1541.72 1359.49L1614.69 1432.46L1594.57 1452.58L1521.6 1379.61C1471.6 1329.61 1471.6 1248.53 1521.6 1198.53Z" fill="#016A82"></path> <path fill-rule="evenodd" clip-rule="evenodd" d="M1620.6 1619.43C1670.6 1569.42 1670.6 1488.35 1620.6 1438.34L1605.47 1423.22L1585.34 1443.34L1600.48 1458.47C1639.36 1497.36 1639.36 1560.41 1600.48 1599.3C1561.58 1638.2 1498.53 1638.2 1459.63 1599.3L1386.66 1526.33L1366.55 1546.46L1439.52 1619.43C1489.52 1669.43 1570.59 1669.43 1620.6 1619.43Z" fill="#016A82"></path> <path fill-rule="evenodd" clip-rule="evenodd" d="M1298.63 1941.39C1348.63 1891.39 1348.63 1810.32 1298.63 1760.31L1283.5 1745.18L1263.37 1765.3L1278.51 1780.44C1317.39 1819.33 1317.39 1882.38 1278.51 1921.27C1239.61 1960.16 1176.56 1960.16 1137.66 1921.27L1064.69 1848.3L1044.57 1868.42L1117.54 1941.39C1167.55 1991.4 1248.62 1991.4 1298.63 1941.39Z" fill="#016A82"></path> <path fill-rule="evenodd" clip-rule="evenodd" d="M1199.67 1520.46C1249.68 1470.46 1330.75 1470.46 1380.75 1520.46L1395.88 1535.59L1375.76 1555.72L1360.62 1540.58C1321.73 1501.69 1258.68 1501.69 1219.79 1540.58C1180.9 1579.48 1180.9 1642.53 1219.79 1681.42L1292.76 1754.4L1272.64 1774.51L1199.67 1701.54C1149.67 1651.54 1149.67 1570.47 1199.67 1520.46Z" fill="#016A82"></path> <path fill-rule="evenodd" clip-rule="evenodd" d="M2021.43 1718.48L2041.55 1698.36L2017.93 1674.73L1997.81 1694.86L2021.43 1718.48Z" fill="#016A82"></path> <path fill-rule="evenodd" clip-rule="evenodd" d="M1974.18 1671.23L1994.31 1651.11L1920.56 1577.37L1900.44 1597.49L1974.18 1671.23Z" fill="#016A82"></path> <path fill-rule="evenodd" clip-rule="evenodd" d="M2038.1 1654.7L2058.22 1634.58L1984.1 1560.45L1963.98 1580.58L2038.1 1654.7Z" fill="#016A82"></path> <path fill-rule="evenodd" clip-rule="evenodd" d="M1849.3 1586.56C1832.64 1569.89 1832.63 1542.88 1849.29 1526.22C1865.95 1509.56 1892.97 1509.56 1909.64 1526.22L1940.8 1557.39L1960.92 1537.27L1929.75 1506.1C1901.98 1478.33 1856.95 1478.33 1829.18 1506.1C1801.4 1533.88 1801.4 1578.91 1829.18 1606.68L1841.2 1618.71L1957.65 1735.15L1977.77 1715.03L1861.33 1598.58L1849.3 1586.56Z" fill="#016A82"></path> <path fill-rule="evenodd" clip-rule="evenodd" d="M1373.72 1352.42L1353.6 1372.54L1377.22 1396.17L1397.34 1376.04L1373.72 1352.42Z" fill="#016A82"></path> <path fill-rule="evenodd" clip-rule="evenodd" d="M1420.96 1399.67L1400.84 1419.79L1474.58 1493.53L1494.7 1473.41L1420.96 1399.67Z" fill="#016A82"></path> <path fill-rule="evenodd" clip-rule="evenodd" d="M1357.04 1416.2L1336.92 1436.32L1411.04 1510.45L1431.17 1490.32L1357.04 1416.2Z" fill="#016A82"></path> <path fill-rule="evenodd" clip-rule="evenodd" d="M1545.84 1484.34C1562.51 1501.01 1562.52 1528.02 1545.85 1544.68C1529.19 1561.34 1502.17 1561.34 1485.51 1544.68L1454.34 1513.51L1434.23 1533.63L1465.39 1564.8C1493.17 1592.57 1538.19 1592.57 1565.97 1564.8C1593.74 1537.02 1593.74 1491.99 1565.97 1464.22L1553.94 1452.2L1437.5 1335.75L1417.37 1355.87L1533.82 1472.32L1545.84 1484.34Z" fill="#016A82"></path> <path fill-rule="evenodd" clip-rule="evenodd" d="M1049.42 1676.71L1029.3 1696.84L1052.92 1720.46L1073.04 1700.34L1049.42 1676.71Z" fill="#016A82"></path> <path fill-rule="evenodd" clip-rule="evenodd" d="M1096.67 1723.96L1076.55 1744.08L1150.28 1817.82L1170.41 1797.7L1096.67 1723.96Z" fill="#016A82"></path> <path fill-rule="evenodd" clip-rule="evenodd" d="M1032.75 1740.49L1012.62 1760.62L1086.75 1834.74L1106.87 1814.62L1032.75 1740.49Z" fill="#016A82"></path> <path fill-rule="evenodd" clip-rule="evenodd" d="M1221.55 1808.64C1238.21 1825.3 1238.22 1852.31 1221.56 1868.98C1204.9 1885.64 1177.88 1885.64 1161.21 1868.98L1130.05 1837.81L1109.93 1857.92L1141.1 1889.09C1168.87 1916.86 1213.9 1916.86 1241.67 1889.09C1269.45 1861.32 1269.45 1816.29 1241.67 1788.51L1229.65 1776.49L1113.2 1660.04L1093.08 1680.17L1209.52 1796.61L1221.55 1808.64Z" fill="#016A82"></path> <path fill-rule="evenodd" clip-rule="evenodd" d="M1699.49 2040.41L1719.62 2020.29L1695.99 1996.66L1675.87 2016.79L1699.49 2040.41Z" fill="#016A82"></path> <path fill-rule="evenodd" clip-rule="evenodd" d="M1652.25 1993.16L1672.37 1973.04L1598.64 1899.3L1578.51 1919.43L1652.25 1993.16Z" fill="#016A82"></path> <path fill-rule="evenodd" clip-rule="evenodd" d="M1716.17 1976.63L1736.3 1956.51L1662.17 1882.39L1642.05 1902.51L1716.17 1976.63Z" fill="#016A82"></path> <path fill-rule="evenodd" clip-rule="evenodd" d="M1527.37 1908.49C1510.71 1891.82 1510.7 1864.82 1527.36 1848.15C1544.02 1831.49 1571.04 1831.49 1587.71 1848.15L1618.87 1879.31L1638.99 1859.2L1607.82 1828.04C1580.05 1800.26 1535.02 1800.26 1507.24 1828.04C1479.47 1855.81 1479.47 1900.84 1507.24 1928.61L1519.27 1940.64L1635.72 2057.09L1655.84 2036.96L1539.39 1920.51L1527.37 1908.49Z" fill="#016A82"></path> <path fill-rule="evenodd" clip-rule="evenodd" d="M2102.06 1778.99C2152.06 1728.98 2233.14 1728.98 2283.14 1778.99L2298.27 1794.12L2278.15 1814.24L2263.01 1799.11C2224.12 1760.22 2161.07 1760.22 2122.18 1799.11C2083.29 1838 2083.29 1901.06 2122.18 1939.95L2195.15 2012.92L2175.03 2033.04L2102.06 1960.07C2052.05 1910.07 2052.05 1828.99 2102.06 1778.99Z" fill="#016A82"></path> <path fill-rule="evenodd" clip-rule="evenodd" d="M2201.05 2199.88C2251.06 2149.88 2251.06 2068.8 2201.05 2018.8L2185.92 2003.67L2165.79 2023.79L2180.93 2038.93C2219.82 2077.82 2219.82 2140.87 2180.93 2179.76C2142.04 2218.65 2078.99 2218.65 2040.09 2179.76L1967.12 2106.79L1947 2126.91L2019.97 2199.88C2069.98 2249.88 2151.05 2249.88 2201.05 2199.88Z" fill="#016A82"></path> <path fill-rule="evenodd" clip-rule="evenodd" d="M1780.13 2100.92C1830.13 2050.92 1911.21 2050.92 1961.21 2100.92L1976.34 2116.05L1956.22 2136.18L1941.08 2121.04C1902.19 2082.15 1839.14 2082.15 1800.25 2121.04C1761.36 2159.93 1761.36 2222.99 1800.25 2261.88L1873.22 2334.85L1853.1 2354.97L1780.13 2282C1730.13 2232 1730.13 2150.93 1780.13 2100.92Z" fill="#016A82"></path> <path fill-rule="evenodd" clip-rule="evenodd" d="M1954.17 1932.88L1934.05 1953L1957.67 1976.63L1977.8 1956.5L1954.17 1932.88Z" fill="#016A82"></path> <path fill-rule="evenodd" clip-rule="evenodd" d="M2001.42 1980.13L1981.29 2000.25L2055.04 2073.99L2075.16 2053.87L2001.42 1980.13Z" fill="#016A82"></path> <path fill-rule="evenodd" clip-rule="evenodd" d="M1937.5 1996.66L1917.38 2016.78L1991.5 2090.9L2011.62 2070.78L1937.5 1996.66Z" fill="#016A82"></path> <path fill-rule="evenodd" clip-rule="evenodd" d="M2126.3 2064.8C2142.97 2081.47 2142.98 2108.48 2126.31 2125.14C2109.65 2141.8 2082.63 2141.8 2065.97 2125.14L2034.8 2093.97L2014.68 2114.09L2045.85 2145.25C2073.62 2173.03 2118.65 2173.03 2146.42 2145.25C2174.2 2117.48 2174.2 2072.45 2146.42 2044.68L2134.4 2032.65L2017.95 1916.2L1997.83 1936.33L2114.27 2052.77L2126.3 2064.8Z" fill="#016A82"></path> <path fill-rule="evenodd" clip-rule="evenodd" d="M1551.66 2194.42C1601.66 2144.42 1601.66 2063.35 1551.66 2013.34L1536.53 1998.21L1516.4 2018.34L1531.54 2033.47C1570.42 2072.36 1570.42 2135.41 1531.54 2174.3C1492.65 2213.2 1429.59 2213.2 1390.69 2174.3L1317.72 2101.33L1297.61 2121.45L1370.58 2194.42C1420.58 2244.42 1501.65 2244.42 1551.66 2194.42Z" fill="#016A82"></path> <path fill-rule="evenodd" clip-rule="evenodd" d="M1130.73 2095.46C1180.74 2045.45 1261.81 2045.45 1311.81 2095.46L1326.94 2110.59L1306.82 2130.72L1291.68 2115.58C1252.79 2076.69 1189.74 2076.69 1150.85 2115.58C1111.96 2154.47 1111.96 2217.53 1150.85 2256.42L1223.82 2329.4L1203.7 2349.51L1130.73 2276.54C1080.73 2226.54 1080.73 2145.46 1130.73 2095.46Z" fill="#016A82"></path> <path fill-rule="evenodd" clip-rule="evenodd" d="M1298.63 1941.39C1348.63 1891.39 1348.63 1810.32 1298.63 1760.31L1283.5 1745.18L1263.37 1765.3L1278.51 1780.44C1317.39 1819.33 1317.39 1882.38 1278.51 1921.27C1239.61 1960.16 1176.56 1960.16 1137.66 1921.27L1064.69 1848.3L1044.57 1868.42L1117.54 1941.39C1167.55 1991.4 1248.62 1991.4 1298.63 1941.39Z" fill="#016A82"></path> <path fill-rule="evenodd" clip-rule="evenodd" d="M877.703 1842.43C927.711 1792.42 1008.78 1792.42 1058.78 1842.43L1073.91 1857.56L1053.79 1877.69L1038.66 1862.55C999.764 1823.66 936.715 1823.66 897.824 1862.55C858.932 1901.44 858.932 1964.5 897.824 2003.39L970.793 2076.36L950.672 2096.48L877.703 2023.51C827.7 1973.51 827.7 1892.43 877.703 1842.43Z" fill="#016A82"></path> <path fill-rule="evenodd" clip-rule="evenodd" d="M976.696 2263.33C1026.7 2213.32 1026.7 2132.25 976.696 2082.24L961.565 2067.12L941.438 2087.24L956.575 2102.37C995.461 2141.26 995.461 2204.31 956.575 2243.2C917.683 2282.1 854.629 2282.1 815.732 2243.2L742.763 2170.24L722.647 2190.36L795.617 2263.33C845.619 2313.33 926.688 2313.33 976.696 2263.33Z" fill="#016A82"></path> <path fill-rule="evenodd" clip-rule="evenodd" d="M555.77 2164.36C605.778 2114.36 686.847 2114.36 736.855 2164.36L751.981 2179.49L731.859 2199.62L716.723 2184.48C677.832 2145.6 614.783 2145.6 575.892 2184.48C537 2223.37 537 2286.43 575.892 2325.32L648.861 2398.29L628.74 2418.41L555.77 2345.44C505.768 2295.44 505.768 2214.36 555.77 2164.36Z" fill="#016A82"></path> <path fill-rule="evenodd" clip-rule="evenodd" d="M1330.28 2315.13L1350.4 2295.01L1276.67 2221.27L1256.54 2241.39L1330.28 2315.13Z" fill="#016A82"></path> <path fill-rule="evenodd" clip-rule="evenodd" d="M1394.2 2298.6L1414.33 2278.48L1340.2 2204.36L1320.08 2224.48L1394.2 2298.6Z" fill="#016A82"></path> <path fill-rule="evenodd" clip-rule="evenodd" d="M1205.4 2230.45C1188.74 2213.8 1188.73 2186.79 1205.39 2170.12C1222.06 2153.46 1249.07 2153.46 1265.74 2170.12L1296.9 2201.29L1317.02 2181.17L1285.85 2150C1258.08 2122.23 1213.05 2122.23 1185.28 2150C1157.5 2177.78 1157.5 2222.81 1185.28 2250.58L1197.3 2262.6L1313.75 2379.06L1333.87 2358.93L1217.42 2242.48L1205.4 2230.45Z" fill="#016A82"></path> <path fill-rule="evenodd" clip-rule="evenodd" d="M729.819 1996.32L709.692 2016.44L733.313 2040.07L753.44 2019.94L729.819 1996.32Z" fill="#016A82"></path> <path fill-rule="evenodd" clip-rule="evenodd" d="M777.062 2043.57L756.941 2063.69L830.677 2137.43L850.804 2117.31L777.062 2043.57Z" fill="#016A82"></path> <path fill-rule="evenodd" clip-rule="evenodd" d="M713.144 2060.1L693.018 2080.22L767.14 2154.35L787.266 2134.22L713.144 2060.1Z" fill="#016A82"></path> <path fill-rule="evenodd" clip-rule="evenodd" d="M901.943 2128.24C918.607 2144.91 918.617 2171.92 901.953 2188.58C885.29 2205.24 858.27 2205.24 841.606 2188.58L810.444 2157.41L790.328 2177.53L821.491 2208.7C849.266 2236.47 894.294 2236.47 922.069 2208.7C949.844 2180.92 949.844 2135.89 922.069 2108.12L910.042 2096.1L793.598 1979.65L773.471 1999.77L889.92 2116.22L901.943 2128.24Z" fill="#016A82"></path> <path fill-rule="evenodd" clip-rule="evenodd" d="M2195.56 1550.52C2245.56 1500.52 2245.56 1419.45 2195.56 1369.44L2180.42 1354.31L2160.3 1374.43L2175.44 1389.57C2214.33 1428.46 2214.33 1491.51 2175.44 1530.4C2136.54 1569.29 2073.49 1569.29 2034.6 1530.4L1961.62 1457.43L1941.51 1477.55L2014.48 1550.52C2064.48 1600.53 2145.55 1600.53 2195.56 1550.52Z" fill="#016A82"></path> <path fill-rule="evenodd" clip-rule="evenodd" d="M2096.6 1129.59C2146.61 1079.59 2227.68 1079.59 2277.68 1129.59L2292.81 1144.72L2272.69 1164.85L2257.55 1149.71C2218.66 1110.82 2155.61 1110.82 2116.72 1149.71C2077.83 1188.61 2077.83 1251.66 2116.72 1290.55L2189.69 1363.53L2169.57 1383.64L2096.6 1310.67C2046.6 1260.67 2046.6 1179.6 2096.6 1129.59Z" fill="#016A82"></path> <path fill-rule="evenodd" clip-rule="evenodd" d="M2264.49 975.525C2314.5 925.517 2314.5 844.448 2264.49 794.446L2249.36 779.315L2229.24 799.436L2244.38 814.572C2283.26 853.464 2283.26 916.512 2244.38 955.404C2205.48 994.295 2142.43 994.295 2103.54 955.404L2030.56 882.434L2010.45 902.555L2083.42 975.525C2133.42 1025.53 2214.49 1025.53 2264.49 975.525Z" fill="#016A82"></path> <path fill-rule="evenodd" clip-rule="evenodd" d="M1942.52 1297.49C1992.53 1247.49 1992.53 1166.42 1942.52 1116.41L1927.39 1101.28L1907.27 1121.4L1922.41 1136.54C1961.3 1175.43 1961.3 1238.48 1922.41 1277.37C1883.51 1316.26 1820.46 1316.26 1781.57 1277.37L1708.59 1204.4L1688.48 1224.52L1761.45 1297.49C1811.45 1347.5 1892.52 1347.5 1942.52 1297.49Z" fill="#016A82"></path> <path fill-rule="evenodd" clip-rule="evenodd" d="M1843.57 876.563C1893.58 826.56 1974.65 826.56 2024.65 876.563L2039.78 891.694L2019.66 911.82L2004.52 896.684C1965.63 857.793 1902.58 857.793 1863.69 896.684C1824.8 935.575 1824.8 998.629 1863.69 1037.52L1936.66 1110.5L1916.54 1130.61L1843.57 1057.64C1793.57 1007.64 1793.57 926.565 1843.57 876.563Z" fill="#016A82"></path> <path fill-rule="evenodd" clip-rule="evenodd" d="M2017.62 708.521L1997.5 728.642L2021.12 752.269L2041.24 732.142L2017.62 708.521Z" fill="#016A82"></path> <path fill-rule="evenodd" clip-rule="evenodd" d="M2064.86 755.769L2044.74 775.89L2118.48 849.632L2138.6 829.505L2064.86 755.769Z" fill="#016A82"></path> <path fill-rule="evenodd" clip-rule="evenodd" d="M2000.94 772.299L1980.82 792.425L2054.94 866.547L2075.07 846.421L2000.94 772.299Z" fill="#016A82"></path> <path fill-rule="evenodd" clip-rule="evenodd" d="M2189.74 840.444C2206.41 857.108 2206.42 884.116 2189.75 900.78C2173.09 917.444 2146.07 917.444 2129.41 900.78L2098.24 869.618L2078.13 889.728L2109.29 920.896C2137.07 948.671 2182.09 948.671 2209.86 920.896C2237.64 893.126 2237.64 848.092 2209.86 820.323L2197.84 808.295L2081.39 691.846L2061.27 711.972L2177.72 828.421L2189.74 840.444Z" fill="#016A82"></path> <path fill-rule="evenodd" clip-rule="evenodd" d="M1693.32 1032.81L1673.2 1052.94L1696.82 1076.56L1716.94 1056.44L1693.32 1032.81Z" fill="#016A82"></path> <path fill-rule="evenodd" clip-rule="evenodd" d="M1740.57 1080.06L1720.45 1100.19L1794.18 1173.92L1814.31 1153.8L1740.57 1080.06Z" fill="#016A82"></path> <path fill-rule="evenodd" clip-rule="evenodd" d="M1676.65 1096.59L1656.52 1116.71L1730.65 1190.84L1750.77 1170.72L1676.65 1096.59Z" fill="#016A82"></path> <path fill-rule="evenodd" clip-rule="evenodd" d="M1865.45 1164.74C1882.11 1181.4 1882.12 1208.41 1865.46 1225.08C1848.79 1241.74 1821.78 1241.74 1805.11 1225.08L1773.95 1193.91L1753.83 1214.02L1785 1245.19C1812.77 1272.96 1857.8 1272.96 1885.57 1245.19C1913.35 1217.42 1913.35 1172.39 1885.57 1144.62L1873.55 1132.59L1757.1 1016.14L1736.98 1036.27L1853.43 1152.71L1865.45 1164.74Z" fill="#016A82"></path> <path fill-rule="evenodd" clip-rule="evenodd" d="M1033.39 389.495C1083.39 339.487 1083.39 258.418 1033.39 208.416L1018.26 193.285L998.134 213.406L1013.27 228.542C1052.16 267.434 1052.16 330.482 1013.27 369.374C974.379 408.265 911.325 408.265 872.433 369.374L799.458 296.404L779.342 316.525L852.312 389.495C902.315 439.497 983.389 439.497 1033.39 389.495Z" fill="#016A82"></path> <path fill-rule="evenodd" clip-rule="evenodd" d="M612.468 290.533C662.47 240.53 743.544 240.53 793.547 290.533L808.678 305.664L788.557 325.79L773.42 310.654C734.529 271.762 671.475 271.762 632.584 310.654C593.697 349.545 593.697 412.599 632.584 451.491L705.559 524.466L685.438 544.581L612.468 471.612C562.46 421.609 562.46 340.535 612.468 290.533Z" fill="#016A82"></path> <path fill-rule="evenodd" clip-rule="evenodd" d="M711.459 711.427C761.461 661.419 761.461 580.35 711.459 530.348L696.328 515.217L676.201 535.338L691.338 550.474C730.229 589.365 730.229 652.414 691.338 691.305C652.446 730.197 589.392 730.197 550.501 691.305L477.526 618.336L457.41 638.457L530.38 711.427C580.382 761.429 661.456 761.429 711.459 711.427Z" fill="#016A82"></path> <path fill-rule="evenodd" clip-rule="evenodd" d="M389.491 1033.39C439.493 983.387 439.493 902.318 389.491 852.316L374.36 837.185L354.233 857.306L369.37 872.442C408.261 911.334 408.261 974.382 369.37 1013.27C330.478 1052.17 267.424 1052.17 228.533 1013.27L155.558 940.304L135.442 960.425L208.412 1033.39C258.414 1083.4 339.488 1083.4 389.491 1033.39Z" fill="#016A82"></path> <path fill-rule="evenodd" clip-rule="evenodd" d="M290.537 612.465C340.539 562.462 421.613 562.462 471.616 612.465L486.747 627.596L466.626 647.722L451.489 632.586C412.598 593.694 349.544 593.694 310.658 632.586C271.766 671.477 271.766 734.531 310.658 773.422L383.628 846.398L363.506 866.513L290.537 793.544C240.529 743.541 240.529 662.467 290.537 612.465Z" fill="#016A82"></path> <path fill-rule="evenodd" clip-rule="evenodd" d="M359.438 37.5018C409.441 -12.5008 490.515 -12.5008 540.517 37.5018L555.648 52.6328L535.527 72.7592L520.391 57.6228C481.499 18.7314 418.445 18.7314 379.554 57.6228C340.668 96.5143 340.668 159.568 379.554 198.46L452.529 271.435L432.408 291.551L359.438 218.581C309.43 168.578 309.43 87.5043 359.438 37.5018Z" fill="#016A82"></path> <path fill-rule="evenodd" clip-rule="evenodd" d="M458.428 458.396C508.431 408.388 508.431 327.32 458.428 277.317L443.297 262.186L423.171 282.307L438.307 297.444C477.199 336.335 477.199 399.384 438.307 438.275C399.416 477.167 336.362 477.167 297.47 438.275L224.495 365.305L204.379 385.427L277.349 458.396C327.352 508.399 408.426 508.399 458.428 458.396Z" fill="#016A82"></path> <path fill-rule="evenodd" clip-rule="evenodd" d="M37.5059 359.434C87.5085 309.426 168.582 309.426 218.585 359.434L233.716 374.565L213.595 394.691L198.459 379.555C159.567 340.663 96.5131 340.663 57.627 379.555C18.7355 418.446 18.7355 481.5 57.627 520.392L130.597 593.367L110.476 613.483L37.5059 540.513C-12.502 490.51 -12.502 409.436 37.5059 359.434Z" fill="#016A82"></path> <path fill-rule="evenodd" clip-rule="evenodd" d="M859.259 557.45L879.385 537.329L855.764 513.702L835.638 533.829L859.259 557.45Z" fill="#016A82"></path> <path fill-rule="evenodd" clip-rule="evenodd" d="M812.015 510.205L832.136 490.079L758.4 416.342L738.273 436.463L812.015 510.205Z" fill="#016A82"></path> <path fill-rule="evenodd" clip-rule="evenodd" d="M875.933 493.672L896.06 473.551L821.937 399.429L801.811 419.55L875.933 493.672Z" fill="#016A82"></path> <path fill-rule="evenodd" clip-rule="evenodd" d="M687.135 425.527C670.471 408.863 670.46 381.855 687.124 365.191C703.788 348.527 730.807 348.527 747.471 365.191L778.634 396.359L798.75 376.243L767.587 345.075C739.812 317.305 694.784 317.305 667.009 345.075C639.233 372.85 639.233 417.879 667.009 445.648L679.036 457.676L795.48 574.125L815.607 553.999L699.157 437.555L687.135 425.527Z" fill="#016A82"></path> <path fill-rule="evenodd" clip-rule="evenodd" d="M258.798 238.64L238.672 258.761L312.413 332.502L332.534 312.376L258.798 238.64Z" fill="#016A82"></path> <path fill-rule="evenodd" clip-rule="evenodd" d="M194.877 255.17L174.75 275.296L248.878 349.418L268.999 329.292L194.877 255.17Z" fill="#016A82"></path> <path fill-rule="evenodd" clip-rule="evenodd" d="M383.677 323.314C400.341 339.978 400.346 366.987 383.682 383.651C367.024 400.315 340.005 400.315 323.341 383.651L292.173 352.488L272.057 372.599L303.225 403.767C331 431.542 376.029 431.542 403.798 403.767C431.573 375.997 431.573 330.963 403.798 303.193L391.776 291.166L275.327 174.716L255.206 194.843L371.65 311.292L383.677 323.314Z" fill="#016A82"></path> <path fill-rule="evenodd" clip-rule="evenodd" d="M490.082 832.137L510.209 812.01L436.467 738.274L416.346 758.395L490.082 832.137Z" fill="#016A82"></path> <path fill-rule="evenodd" clip-rule="evenodd" d="M554.003 815.604L574.125 795.483L500.002 721.356L479.876 741.482L554.003 815.604Z" fill="#016A82"></path> <path fill-rule="evenodd" clip-rule="evenodd" d="M365.203 747.459C348.539 730.795 348.528 703.787 365.192 687.123C381.856 670.459 408.876 670.459 425.54 687.123L456.702 718.291L476.818 698.175L445.655 667.007C417.88 639.232 372.852 639.237 345.082 667.007C317.302 694.782 317.302 739.811 345.077 767.58L357.104 779.608L473.554 896.057L493.675 875.931L377.231 759.482L365.203 747.459Z" fill="#016A82"></path> <path fill-rule="evenodd" clip-rule="evenodd" d="M389.491 1033.39C439.493 983.387 439.493 902.318 389.491 852.316L374.36 837.185L354.233 857.306L369.37 872.442C408.261 911.334 408.261 974.382 369.37 1013.27C330.478 1052.17 267.424 1052.17 228.533 1013.27L155.558 940.304L135.442 960.425L208.412 1033.39C258.414 1083.4 339.488 1083.4 389.491 1033.39Z" fill="#016A82"></path> <path fill-rule="evenodd" clip-rule="evenodd" d="M215.361 1201.35L235.482 1181.23L211.861 1157.6L191.735 1177.73L215.361 1201.35Z" fill="#016A82"></path> <path fill-rule="evenodd" clip-rule="evenodd" d="M232.035 1137.57L252.157 1117.45L178.034 1043.32L157.908 1063.45L232.035 1137.57Z" fill="#016A82"></path> <path fill-rule="evenodd" clip-rule="evenodd" d="M536.768 879.944L556.894 859.818L533.268 836.197L513.146 856.318L536.768 879.944Z" fill="#016A82"></path> <path fill-rule="evenodd" clip-rule="evenodd" d="M1033.39 389.495C1083.39 339.487 1083.39 258.418 1033.39 208.416L1018.26 193.285L998.134 213.406L1013.27 228.542C1052.16 267.434 1052.16 330.482 1013.27 369.374C974.379 408.265 911.325 408.265 872.433 369.374L799.458 296.404L779.342 316.525L852.312 389.495C902.315 439.497 983.389 439.497 1033.39 389.495Z" fill="#016A82"></path> <path fill-rule="evenodd" clip-rule="evenodd" d="M1009.1 103.558C992.439 86.8943 992.429 59.8857 1009.09 43.2218C1025.76 26.5578 1052.78 26.5578 1069.44 43.2218L1100.6 74.3896L1120.72 54.2739L1089.56 23.1061C1061.78 -4.66362 1016.75 -4.66362 988.977 23.1061C961.202 50.8811 961.202 95.9096 988.977 123.679L1001 135.707L1117.45 252.156L1137.57 232.03L1021.13 115.58L1009.1 103.558Z" fill="#016A82"></path> </svg> 